# xmcd
#
# Track frame offsets: 
#        150
#        11503
#        23831
#        35562
#        45443
#        58256
#        69968
#        80314
#        91021
#        99986
#        110487
#        123803
#
# Disc length: 1793 seconds
#
# Revision: 2
# Processed by: cddbd v1.4PL0 Copyright (c) Steve Scherf et al.
# Submitted via: ExactAudioCopy v0.95a4
#
DISCID=8606ff0c
DTITLE=John St. John and Steve Quinzi - O Santa, Where Art Thou? A Blu
DTITLE=egrass Christmas
DYEAR=2002
DGENRE=Bluegrass
TTITLE0=White Christmas
TTITLE1=Angels We Have Heard on High
TTITLE2=Rudolph the Red-Nosed Reindeer
TTITLE3=Deck the Halls
TTITLE4=Little Drummer Boy
TTITLE5=God Rest Ye Merry Gentlemen
TTITLE6=Let It Snow
TTITLE7=Hark! The Herald Angels Sing
TTITLE8=Holly Jolly Christmas
TTITLE9=Mary's Boy Child
TTITLE10=Blue Christmas
TTITLE11=Go Tell It on the Mountain
EXTD=Madacy SPX2 5061 Made in Canada\n\nBAND\nBanjo - Dobro: forest Ro
EXTD=dgers\nFiddle - Mandolin: Jason Thomas\nGuitar: Greg Pakstis\nDru
EXTD=ms: Walter Sweet\nBass: Eddie Weil\nVocals on Tracks 1, 3, 5, 7, 
EXTD=9, 11: Sarah Moore, Randi Paul, Michelle Lindahl, \nSuzy Hosmer, 
EXTD=Kurt Vonschmittou, Scott Harrell, Bryan Harden, Rob Alexander\n\n
EXTD=Arrangements: Steve Quinzi\nProduced by John St. John\n
EXTT0=
EXTT1=
EXTT2=
EXTT3=
EXTT4=
EXTT5=
EXTT6=
EXTT7=
EXTT8=
EXTT9=
EXTT10=
EXTT11=
PLAYORDER=
